<svg xmlns="http://www.w3.org/2000/svg" width="400" height="224" viewBox="0 0 400 224" shape-rendering="crispEdges">
  <rect width="400" height="224" fill="transparent"/>

  <!-- тень: мягкая + плотное ядро -->
  <ellipse cx="196" cy="206" rx="182" ry="10" fill="#00000030"/>
  <ellipse cx="196" cy="205" rx="150" ry="6" fill="#00000055"/>

  <!-- ═══ ЗАДНЯЯ ЧАСТЬ КУЗОВА (тёмная плоскость заднего крыла) ═══ -->
  <polygon points="284,50 334,90 372,96 374,154 358,166 298,96" fill="#1d5236"/>
  <!-- крышка багажника -->
  <polygon points="326,84 368,92 366,102 328,94" fill="#3f9868"/>
  <rect x="332" y="86" width="28" height="2" fill="#63ba86"/>

  <!-- ═══ КАБИНА: единый силуэт теплицы ═══ -->
  <polygon points="166,84 204,46 284,46 330,90 170,88" fill="#1c2c3c"/>
  <!-- лобовое стекло (светлее, с бликами) -->
  <polygon points="170,82 207,48 242,48 224,82" fill="#314d68"/>
  <polygon points="182,72 202,52 210,52 202,62 190,76" fill="#6d95b8"/>
  <!-- передняя стойка -->
  <polygon points="202,45 209,46 186,84 178,84" fill="#2f7b52"/>
  <!-- дверь: стекло светлее -->
  <polygon points="212,50 258,50 260,86 210,86" fill="#314d68"/>
  <polygon points="216,54 228,54 224,62 214,62" fill="#6d95b8"/>
  <!-- средняя стойка (тонкая) -->
  <rect x="258" y="50" width="3" height="36" fill="#1d5236"/>
  <!-- четверть-стекло -->
  <polygon points="263,50 280,50 288,84 263,86" fill="#314d68"/>
  <!-- заднее стекло (фастбек, наклонная плоскость) -->
  <polygon points="284,48 302,54 324,84 314,88 286,58" fill="#1c2c3c"/>
  <polygon points="288,54 294,58 290,60 285,56" fill="#6d95b8"/>
  <!-- задняя стойка -->
  <polygon points="300,50 306,52 328,86 322,89 296,56" fill="#2f7b52"/>
  <!-- крыша -->
  <polygon points="200,40 282,40 286,50 206,50" fill="#3f9868"/>
  <rect x="205" y="41" width="72" height="3" fill="#63ba86"/>
  <rect x="207" y="49" width="78" height="2" fill="#1d5236"/>
  <!-- хром-окантовка пояса под стеклами -->
  <rect x="170" y="86" width="160" height="2" fill="#d6dae2"/>
  <rect x="170" y="88" width="160" height="1" fill="#787f8c"/>
  <!-- зеркало -->
  <polygon points="160,64 174,60 174,70 160,71" fill="#081711"/>
  <rect x="162" y="62" width="10" height="4" fill="#a9aeb9"/>

  <!-- ═══ ОСНОВНОЙ БОРТ ═══ -->
  <polygon points="18,110 60,100 170,84 290,88 366,94 374,104 374,156 358,168 54,172 38,162 18,146 14,118" fill="#2f7b52"/>
  <rect x="50" y="128" width="2" height="2" fill="#2f7b52"/><rect x="50" y="130" width="2" height="2" fill="#296b47"/><rect x="52" y="128" width="2" height="2" fill="#296b47"/><rect x="52" y="130" width="2" height="2" fill="#2f7b52"/><rect x="54" y="128" width="2" height="2" fill="#2f7b52"/><rect x="54" y="130" width="2" height="2" fill="#296b47"/><rect x="56" y="128" width="2" height="2" fill="#296b47"/><rect x="56" y="130" width="2" height="2" fill="#2f7b52"/><rect x="58" y="128" width="2" height="2" fill="#2f7b52"/><rect x="58" y="130" width="2" height="2" fill="#296b47"/><rect x="60" y="128" width="2" height="2" fill="#296b47"/><rect x="60" y="130" width="2" height="2" fill="#2f7b52"/><rect x="62" y="128" width="2" height="2" fill="#2f7b52"/><rect x="62" y="130" width="2" height="2" fill="#296b47"/><rect x="64" y="128" width="2" height="2" fill="#296b47"/><rect x="64" y="130" width="2" height="2" fill="#2f7b52"/><rect x="66" y="128" width="2" height="2" fill="#2f7b52"/><rect x="66" y="130" width="2" height="2" fill="#296b47"/><rect x="68" y="128" width="2" height="2" fill="#296b47"/><rect x="68" y="130" width="2" height="2" fill="#2f7b52"/><rect x="70" y="128" width="2" height="2" fill="#2f7b52"/><rect x="70" y="130" width="2" height="2" fill="#296b47"/><rect x="72" y="128" width="2" height="2" fill="#296b47"/><rect x="72" y="130" width="2" height="2" fill="#2f7b52"/><rect x="74" y="128" width="2" height="2" fill="#2f7b52"/><rect x="74" y="130" width="2" height="2" fill="#296b47"/><rect x="76" y="128" width="2" height="2" fill="#296b47"/><rect x="76" y="130" width="2" height="2" fill="#2f7b52"/><rect x="78" y="128" width="2" height="2" fill="#2f7b52"/><rect x="78" y="130" width="2" height="2" fill="#296b47"/><rect x="80" y="128" width="2" height="2" fill="#296b47"/><rect x="80" y="130" width="2" height="2" fill="#2f7b52"/><rect x="82" y="128" width="2" height="2" fill="#2f7b52"/><rect x="82" y="130" width="2" height="2" fill="#296b47"/><rect x="84" y="128" width="2" height="2" fill="#296b47"/><rect x="84" y="130" width="2" height="2" fill="#2f7b52"/><rect x="86" y="128" width="2" height="2" fill="#2f7b52"/><rect x="86" y="130" width="2" height="2" fill="#296b47"/><rect x="88" y="128" width="2" height="2" fill="#296b47"/><rect x="88" y="130" width="2" height="2" fill="#2f7b52"/><rect x="90" y="128" width="2" height="2" fill="#2f7b52"/><rect x="90" y="130" width="2" height="2" fill="#296b47"/><rect x="92" y="128" width="2" height="2" fill="#296b47"/><rect x="92" y="130" width="2" height="2" fill="#2f7b52"/><rect x="94" y="128" width="2" height="2" fill="#2f7b52"/><rect x="94" y="130" width="2" height="2" fill="#296b47"/><rect x="96" y="128" width="2" height="2" fill="#296b47"/><rect x="96" y="130" width="2" height="2" fill="#2f7b52"/><rect x="98" y="128" width="2" height="2" fill="#2f7b52"/><rect x="98" y="130" width="2" height="2" fill="#296b47"/><rect x="100" y="128" width="2" height="2" fill="#296b47"/><rect x="100" y="130" width="2" height="2" fill="#2f7b52"/><rect x="102" y="128" width="2" height="2" fill="#2f7b52"/><rect x="102" y="130" width="2" height="2" fill="#296b47"/><rect x="104" y="128" width="2" height="2" fill="#296b47"/><rect x="104" y="130" width="2" height="2" fill="#2f7b52"/><rect x="106" y="128" width="2" height="2" fill="#2f7b52"/><rect x="106" y="130" width="2" height="2" fill="#296b47"/><rect x="108" y="128" width="2" height="2" fill="#296b47"/><rect x="108" y="130" width="2" height="2" fill="#2f7b52"/><rect x="110" y="128" width="2" height="2" fill="#2f7b52"/><rect x="110" y="130" width="2" height="2" fill="#296b47"/><rect x="112" y="128" width="2" height="2" fill="#296b47"/><rect x="112" y="130" width="2" height="2" fill="#2f7b52"/><rect x="114" y="128" width="2" height="2" fill="#2f7b52"/><rect x="114" y="130" width="2" height="2" fill="#296b47"/><rect x="116" y="128" width="2" height="2" fill="#296b47"/><rect x="116" y="130" width="2" height="2" fill="#2f7b52"/><rect x="118" y="128" width="2" height="2" fill="#2f7b52"/><rect x="118" y="130" width="2" height="2" fill="#296b47"/><rect x="120" y="128" width="2" height="2" fill="#296b47"/><rect x="120" y="130" width="2" height="2" fill="#2f7b52"/><rect x="122" y="128" width="2" height="2" fill="#2f7b52"/><rect x="122" y="130" width="2" height="2" fill="#296b47"/><rect x="124" y="128" width="2" height="2" fill="#296b47"/><rect x="124" y="130" width="2" height="2" fill="#2f7b52"/><rect x="126" y="128" width="2" height="2" fill="#2f7b52"/><rect x="126" y="130" width="2" height="2" fill="#296b47"/><rect x="128" y="128" width="2" height="2" fill="#296b47"/><rect x="128" y="130" width="2" height="2" fill="#2f7b52"/><rect x="130" y="128" width="2" height="2" fill="#2f7b52"/><rect x="130" y="130" width="2" height="2" fill="#296b47"/><rect x="132" y="128" width="2" height="2" fill="#296b47"/><rect x="132" y="130" width="2" height="2" fill="#2f7b52"/><rect x="134" y="128" width="2" height="2" fill="#2f7b52"/><rect x="134" y="130" width="2" height="2" fill="#296b47"/><rect x="136" y="128" width="2" height="2" fill="#296b47"/><rect x="136" y="130" width="2" height="2" fill="#2f7b52"/><rect x="138" y="128" width="2" height="2" fill="#2f7b52"/><rect x="138" y="130" width="2" height="2" fill="#296b47"/><rect x="140" y="128" width="2" height="2" fill="#296b47"/><rect x="140" y="130" width="2" height="2" fill="#2f7b52"/><rect x="142" y="128" width="2" height="2" fill="#2f7b52"/><rect x="142" y="130" width="2" height="2" fill="#296b47"/><rect x="144" y="128" width="2" height="2" fill="#296b47"/><rect x="144" y="130" width="2" height="2" fill="#2f7b52"/><rect x="146" y="128" width="2" height="2" fill="#2f7b52"/><rect x="146" y="130" width="2" height="2" fill="#296b47"/><rect x="148" y="128" width="2" height="2" fill="#296b47"/><rect x="148" y="130" width="2" height="2" fill="#2f7b52"/><rect x="150" y="128" width="2" height="2" fill="#2f7b52"/><rect x="150" y="130" width="2" height="2" fill="#296b47"/><rect x="152" y="128" width="2" height="2" fill="#296b47"/><rect x="152" y="130" width="2" height="2" fill="#2f7b52"/><rect x="154" y="128" width="2" height="2" fill="#2f7b52"/><rect x="154" y="130" width="2" height="2" fill="#296b47"/><rect x="156" y="128" width="2" height="2" fill="#296b47"/><rect x="156" y="130" width="2" height="2" fill="#2f7b52"/><rect x="158" y="128" width="2" height="2" fill="#2f7b52"/><rect x="158" y="130" width="2" height="2" fill="#296b47"/><rect x="160" y="128" width="2" height="2" fill="#296b47"/><rect x="160" y="130" width="2" height="2" fill="#2f7b52"/><rect x="162" y="128" width="2" height="2" fill="#2f7b52"/><rect x="162" y="130" width="2" height="2" fill="#296b47"/><rect x="164" y="128" width="2" height="2" fill="#296b47"/><rect x="164" y="130" width="2" height="2" fill="#2f7b52"/><rect x="166" y="128" width="2" height="2" fill="#2f7b52"/><rect x="166" y="130" width="2" height="2" fill="#296b47"/><rect x="168" y="128" width="2" height="2" fill="#296b47"/><rect x="168" y="130" width="2" height="2" fill="#2f7b52"/><rect x="170" y="128" width="2" height="2" fill="#2f7b52"/><rect x="170" y="130" width="2" height="2" fill="#296b47"/><rect x="172" y="128" width="2" height="2" fill="#296b47"/><rect x="172" y="130" width="2" height="2" fill="#2f7b52"/><rect x="174" y="128" width="2" height="2" fill="#2f7b52"/><rect x="174" y="130" width="2" height="2" fill="#296b47"/><rect x="176" y="128" width="2" height="2" fill="#296b47"/><rect x="176" y="130" width="2" height="2" fill="#2f7b52"/><rect x="178" y="128" width="2" height="2" fill="#2f7b52"/><rect x="178" y="130" width="2" height="2" fill="#296b47"/><rect x="180" y="128" width="2" height="2" fill="#296b47"/><rect x="180" y="130" width="2" height="2" fill="#2f7b52"/><rect x="182" y="128" width="2" height="2" fill="#2f7b52"/><rect x="182" y="130" width="2" height="2" fill="#296b47"/><rect x="184" y="128" width="2" height="2" fill="#296b47"/><rect x="184" y="130" width="2" height="2" fill="#2f7b52"/><rect x="186" y="128" width="2" height="2" fill="#2f7b52"/><rect x="186" y="130" width="2" height="2" fill="#296b47"/><rect x="188" y="128" width="2" height="2" fill="#296b47"/><rect x="188" y="130" width="2" height="2" fill="#2f7b52"/><rect x="190" y="128" width="2" height="2" fill="#2f7b52"/><rect x="190" y="130" width="2" height="2" fill="#296b47"/><rect x="192" y="128" width="2" height="2" fill="#296b47"/><rect x="192" y="130" width="2" height="2" fill="#2f7b52"/><rect x="194" y="128" width="2" height="2" fill="#2f7b52"/><rect x="194" y="130" width="2" height="2" fill="#296b47"/><rect x="196" y="128" width="2" height="2" fill="#296b47"/><rect x="196" y="130" width="2" height="2" fill="#2f7b52"/><rect x="198" y="128" width="2" height="2" fill="#2f7b52"/><rect x="198" y="130" width="2" height="2" fill="#296b47"/><rect x="200" y="128" width="2" height="2" fill="#296b47"/><rect x="200" y="130" width="2" height="2" fill="#2f7b52"/><rect x="202" y="128" width="2" height="2" fill="#2f7b52"/><rect x="202" y="130" width="2" height="2" fill="#296b47"/><rect x="204" y="128" width="2" height="2" fill="#296b47"/><rect x="204" y="130" width="2" height="2" fill="#2f7b52"/><rect x="206" y="128" width="2" height="2" fill="#2f7b52"/><rect x="206" y="130" width="2" height="2" fill="#296b47"/><rect x="208" y="128" width="2" height="2" fill="#296b47"/><rect x="208" y="130" width="2" height="2" fill="#2f7b52"/><rect x="210" y="128" width="2" height="2" fill="#2f7b52"/><rect x="210" y="130" width="2" height="2" fill="#296b47"/><rect x="212" y="128" width="2" height="2" fill="#296b47"/><rect x="212" y="130" width="2" height="2" fill="#2f7b52"/><rect x="214" y="128" width="2" height="2" fill="#2f7b52"/><rect x="214" y="130" width="2" height="2" fill="#296b47"/><rect x="216" y="128" width="2" height="2" fill="#296b47"/><rect x="216" y="130" width="2" height="2" fill="#2f7b52"/><rect x="218" y="128" width="2" height="2" fill="#2f7b52"/><rect x="218" y="130" width="2" height="2" fill="#296b47"/><rect x="220" y="128" width="2" height="2" fill="#296b47"/><rect x="220" y="130" width="2" height="2" fill="#2f7b52"/><rect x="222" y="128" width="2" height="2" fill="#2f7b52"/><rect x="222" y="130" width="2" height="2" fill="#296b47"/><rect x="224" y="128" width="2" height="2" fill="#296b47"/><rect x="224" y="130" width="2" height="2" fill="#2f7b52"/><rect x="226" y="128" width="2" height="2" fill="#2f7b52"/><rect x="226" y="130" width="2" height="2" fill="#296b47"/><rect x="228" y="128" width="2" height="2" fill="#296b47"/><rect x="228" y="130" width="2" height="2" fill="#2f7b52"/><rect x="230" y="128" width="2" height="2" fill="#2f7b52"/><rect x="230" y="130" width="2" height="2" fill="#296b47"/><rect x="232" y="128" width="2" height="2" fill="#296b47"/><rect x="232" y="130" width="2" height="2" fill="#2f7b52"/><rect x="234" y="128" width="2" height="2" fill="#2f7b52"/><rect x="234" y="130" width="2" height="2" fill="#296b47"/><rect x="236" y="128" width="2" height="2" fill="#296b47"/><rect x="236" y="130" width="2" height="2" fill="#2f7b52"/><rect x="238" y="128" width="2" height="2" fill="#2f7b52"/><rect x="238" y="130" width="2" height="2" fill="#296b47"/><rect x="240" y="128" width="2" height="2" fill="#296b47"/><rect x="240" y="130" width="2" height="2" fill="#2f7b52"/><rect x="242" y="128" width="2" height="2" fill="#2f7b52"/><rect x="242" y="130" width="2" height="2" fill="#296b47"/><rect x="244" y="128" width="2" height="2" fill="#296b47"/><rect x="244" y="130" width="2" height="2" fill="#2f7b52"/><rect x="246" y="128" width="2" height="2" fill="#2f7b52"/><rect x="246" y="130" width="2" height="2" fill="#296b47"/><rect x="248" y="128" width="2" height="2" fill="#296b47"/><rect x="248" y="130" width="2" height="2" fill="#2f7b52"/><rect x="250" y="128" width="2" height="2" fill="#2f7b52"/><rect x="250" y="130" width="2" height="2" fill="#296b47"/><rect x="252" y="128" width="2" height="2" fill="#296b47"/><rect x="252" y="130" width="2" height="2" fill="#2f7b52"/><rect x="254" y="128" width="2" height="2" fill="#2f7b52"/><rect x="254" y="130" width="2" height="2" fill="#296b47"/><rect x="256" y="128" width="2" height="2" fill="#296b47"/><rect x="256" y="130" width="2" height="2" fill="#2f7b52"/><rect x="258" y="128" width="2" height="2" fill="#2f7b52"/><rect x="258" y="130" width="2" height="2" fill="#296b47"/><rect x="260" y="128" width="2" height="2" fill="#296b47"/><rect x="260" y="130" width="2" height="2" fill="#2f7b52"/><rect x="262" y="128" width="2" height="2" fill="#2f7b52"/><rect x="262" y="130" width="2" height="2" fill="#296b47"/><rect x="264" y="128" width="2" height="2" fill="#296b47"/><rect x="264" y="130" width="2" height="2" fill="#2f7b52"/><rect x="266" y="128" width="2" height="2" fill="#2f7b52"/><rect x="266" y="130" width="2" height="2" fill="#296b47"/><rect x="268" y="128" width="2" height="2" fill="#296b47"/><rect x="268" y="130" width="2" height="2" fill="#2f7b52"/><rect x="270" y="128" width="2" height="2" fill="#2f7b52"/><rect x="270" y="130" width="2" height="2" fill="#296b47"/><rect x="272" y="128" width="2" height="2" fill="#296b47"/><rect x="272" y="130" width="2" height="2" fill="#2f7b52"/><rect x="274" y="128" width="2" height="2" fill="#2f7b52"/><rect x="274" y="130" width="2" height="2" fill="#296b47"/><rect x="276" y="128" width="2" height="2" fill="#296b47"/><rect x="276" y="130" width="2" height="2" fill="#2f7b52"/><rect x="278" y="128" width="2" height="2" fill="#2f7b52"/><rect x="278" y="130" width="2" height="2" fill="#296b47"/><rect x="280" y="128" width="2" height="2" fill="#296b47"/><rect x="280" y="130" width="2" height="2" fill="#2f7b52"/><rect x="282" y="128" width="2" height="2" fill="#2f7b52"/><rect x="282" y="130" width="2" height="2" fill="#296b47"/><rect x="284" y="128" width="2" height="2" fill="#296b47"/><rect x="284" y="130" width="2" height="2" fill="#2f7b52"/><rect x="286" y="128" width="2" height="2" fill="#2f7b52"/><rect x="286" y="130" width="2" height="2" fill="#296b47"/><rect x="288" y="128" width="2" height="2" fill="#296b47"/><rect x="288" y="130" width="2" height="2" fill="#2f7b52"/><rect x="290" y="128" width="2" height="2" fill="#2f7b52"/><rect x="290" y="130" width="2" height="2" fill="#296b47"/><rect x="292" y="128" width="2" height="2" fill="#296b47"/><rect x="292" y="130" width="2" height="2" fill="#2f7b52"/><rect x="294" y="128" width="2" height="2" fill="#2f7b52"/><rect x="294" y="130" width="2" height="2" fill="#296b47"/><rect x="296" y="128" width="2" height="2" fill="#296b47"/><rect x="296" y="130" width="2" height="2" fill="#2f7b52"/><rect x="298" y="128" width="2" height="2" fill="#2f7b52"/><rect x="298" y="130" width="2" height="2" fill="#296b47"/><rect x="300" y="128" width="2" height="2" fill="#296b47"/><rect x="300" y="130" width="2" height="2" fill="#2f7b52"/><rect x="302" y="128" width="2" height="2" fill="#2f7b52"/><rect x="302" y="130" width="2" height="2" fill="#296b47"/><rect x="304" y="128" width="2" height="2" fill="#296b47"/><rect x="304" y="130" width="2" height="2" fill="#2f7b52"/><rect x="306" y="128" width="2" height="2" fill="#2f7b52"/><rect x="306" y="130" width="2" height="2" fill="#296b47"/><rect x="308" y="128" width="2" height="2" fill="#296b47"/><rect x="308" y="130" width="2" height="2" fill="#2f7b52"/><rect x="310" y="128" width="2" height="2" fill="#2f7b52"/><rect x="310" y="130" width="2" height="2" fill="#296b47"/><rect x="312" y="128" width="2" height="2" fill="#296b47"/><rect x="312" y="130" width="2" height="2" fill="#2f7b52"/><rect x="314" y="128" width="2" height="2" fill="#2f7b52"/><rect x="314" y="130" width="2" height="2" fill="#296b47"/><rect x="316" y="128" width="2" height="2" fill="#296b47"/><rect x="316" y="130" width="2" height="2" fill="#2f7b52"/><rect x="318" y="128" width="2" height="2" fill="#2f7b52"/><rect x="318" y="130" width="2" height="2" fill="#296b47"/><rect x="320" y="128" width="2" height="2" fill="#296b47"/><rect x="320" y="130" width="2" height="2" fill="#2f7b52"/><rect x="322" y="128" width="2" height="2" fill="#2f7b52"/><rect x="322" y="130" width="2" height="2" fill="#296b47"/><rect x="324" y="128" width="2" height="2" fill="#296b47"/><rect x="324" y="130" width="2" height="2" fill="#2f7b52"/><rect x="326" y="128" width="2" height="2" fill="#2f7b52"/><rect x="326" y="130" width="2" height="2" fill="#296b47"/><rect x="328" y="128" width="2" height="2" fill="#296b47"/><rect x="328" y="130" width="2" height="2" fill="#2f7b52"/><rect x="330" y="128" width="2" height="2" fill="#2f7b52"/><rect x="330" y="130" width="2" height="2" fill="#296b47"/><rect x="332" y="128" width="2" height="2" fill="#296b47"/><rect x="332" y="130" width="2" height="2" fill="#2f7b52"/><rect x="334" y="128" width="2" height="2" fill="#2f7b52"/><rect x="334" y="130" width="2" height="2" fill="#296b47"/><rect x="336" y="128" width="2" height="2" fill="#296b47"/><rect x="336" y="130" width="2" height="2" fill="#2f7b52"/><rect x="338" y="128" width="2" height="2" fill="#2f7b52"/><rect x="338" y="130" width="2" height="2" fill="#296b47"/><rect x="340" y="128" width="2" height="2" fill="#296b47"/><rect x="340" y="130" width="2" height="2" fill="#2f7b52"/><rect x="342" y="128" width="2" height="2" fill="#2f7b52"/><rect x="342" y="130" width="2" height="2" fill="#296b47"/><rect x="344" y="128" width="2" height="2" fill="#296b47"/><rect x="344" y="130" width="2" height="2" fill="#2f7b52"/><rect x="346" y="128" width="2" height="2" fill="#2f7b52"/><rect x="346" y="130" width="2" height="2" fill="#296b47"/><rect x="348" y="128" width="2" height="2" fill="#296b47"/><rect x="348" y="130" width="2" height="2" fill="#2f7b52"/><rect x="350" y="128" width="2" height="2" fill="#2f7b52"/><rect x="350" y="130" width="2" height="2" fill="#296b47"/><rect x="352" y="128" width="2" height="2" fill="#296b47"/><rect x="352" y="130" width="2" height="2" fill="#2f7b52"/><rect x="354" y="128" width="2" height="2" fill="#2f7b52"/><rect x="354" y="130" width="2" height="2" fill="#296b47"/><rect x="356" y="128" width="2" height="2" fill="#296b47"/><rect x="356" y="130" width="2" height="2" fill="#2f7b52"/><rect x="358" y="128" width="2" height="2" fill="#2f7b52"/><rect x="358" y="130" width="2" height="2" fill="#296b47"/>
  <rect x="46" y="132" width="318" height="22" fill="#296b47"/>
  <rect x="50" y="154" width="2" height="2" fill="#296b47"/><rect x="50" y="156" width="2" height="2" fill="#1d5236"/><rect x="52" y="154" width="2" height="2" fill="#1d5236"/><rect x="52" y="156" width="2" height="2" fill="#296b47"/><rect x="54" y="154" width="2" height="2" fill="#296b47"/><rect x="54" y="156" width="2" height="2" fill="#1d5236"/><rect x="56" y="154" width="2" height="2" fill="#1d5236"/><rect x="56" y="156" width="2" height="2" fill="#296b47"/><rect x="58" y="154" width="2" height="2" fill="#296b47"/><rect x="58" y="156" width="2" height="2" fill="#1d5236"/><rect x="60" y="154" width="2" height="2" fill="#1d5236"/><rect x="60" y="156" width="2" height="2" fill="#296b47"/><rect x="62" y="154" width="2" height="2" fill="#296b47"/><rect x="62" y="156" width="2" height="2" fill="#1d5236"/><rect x="64" y="154" width="2" height="2" fill="#1d5236"/><rect x="64" y="156" width="2" height="2" fill="#296b47"/><rect x="66" y="154" width="2" height="2" fill="#296b47"/><rect x="66" y="156" width="2" height="2" fill="#1d5236"/><rect x="68" y="154" width="2" height="2" fill="#1d5236"/><rect x="68" y="156" width="2" height="2" fill="#296b47"/><rect x="70" y="154" width="2" height="2" fill="#296b47"/><rect x="70" y="156" width="2" height="2" fill="#1d5236"/><rect x="72" y="154" width="2" height="2" fill="#1d5236"/><rect x="72" y="156" width="2" height="2" fill="#296b47"/><rect x="74" y="154" width="2" height="2" fill="#296b47"/><rect x="74" y="156" width="2" height="2" fill="#1d5236"/><rect x="76" y="154" width="2" height="2" fill="#1d5236"/><rect x="76" y="156" width="2" height="2" fill="#296b47"/><rect x="78" y="154" width="2" height="2" fill="#296b47"/><rect x="78" y="156" width="2" height="2" fill="#1d5236"/><rect x="80" y="154" width="2" height="2" fill="#1d5236"/><rect x="80" y="156" width="2" height="2" fill="#296b47"/><rect x="82" y="154" width="2" height="2" fill="#296b47"/><rect x="82" y="156" width="2" height="2" fill="#1d5236"/><rect x="84" y="154" width="2" height="2" fill="#1d5236"/><rect x="84" y="156" width="2" height="2" fill="#296b47"/><rect x="86" y="154" width="2" height="2" fill="#296b47"/><rect x="86" y="156" width="2" height="2" fill="#1d5236"/><rect x="88" y="154" width="2" height="2" fill="#1d5236"/><rect x="88" y="156" width="2" height="2" fill="#296b47"/><rect x="90" y="154" width="2" height="2" fill="#296b47"/><rect x="90" y="156" width="2" height="2" fill="#1d5236"/><rect x="92" y="154" width="2" height="2" fill="#1d5236"/><rect x="92" y="156" width="2" height="2" fill="#296b47"/><rect x="94" y="154" width="2" height="2" fill="#296b47"/><rect x="94" y="156" width="2" height="2" fill="#1d5236"/><rect x="96" y="154" width="2" height="2" fill="#1d5236"/><rect x="96" y="156" width="2" height="2" fill="#296b47"/><rect x="98" y="154" width="2" height="2" fill="#296b47"/><rect x="98" y="156" width="2" height="2" fill="#1d5236"/><rect x="100" y="154" width="2" height="2" fill="#1d5236"/><rect x="100" y="156" width="2" height="2" fill="#296b47"/><rect x="102" y="154" width="2" height="2" fill="#296b47"/><rect x="102" y="156" width="2" height="2" fill="#1d5236"/><rect x="104" y="154" width="2" height="2" fill="#1d5236"/><rect x="104" y="156" width="2" height="2" fill="#296b47"/><rect x="106" y="154" width="2" height="2" fill="#296b47"/><rect x="106" y="156" width="2" height="2" fill="#1d5236"/><rect x="108" y="154" width="2" height="2" fill="#1d5236"/><rect x="108" y="156" width="2" height="2" fill="#296b47"/><rect x="110" y="154" width="2" height="2" fill="#296b47"/><rect x="110" y="156" width="2" height="2" fill="#1d5236"/><rect x="112" y="154" width="2" height="2" fill="#1d5236"/><rect x="112" y="156" width="2" height="2" fill="#296b47"/><rect x="114" y="154" width="2" height="2" fill="#296b47"/><rect x="114" y="156" width="2" height="2" fill="#1d5236"/><rect x="116" y="154" width="2" height="2" fill="#1d5236"/><rect x="116" y="156" width="2" height="2" fill="#296b47"/><rect x="118" y="154" width="2" height="2" fill="#296b47"/><rect x="118" y="156" width="2" height="2" fill="#1d5236"/><rect x="120" y="154" width="2" height="2" fill="#1d5236"/><rect x="120" y="156" width="2" height="2" fill="#296b47"/><rect x="122" y="154" width="2" height="2" fill="#296b47"/><rect x="122" y="156" width="2" height="2" fill="#1d5236"/><rect x="124" y="154" width="2" height="2" fill="#1d5236"/><rect x="124" y="156" width="2" height="2" fill="#296b47"/><rect x="126" y="154" width="2" height="2" fill="#296b47"/><rect x="126" y="156" width="2" height="2" fill="#1d5236"/><rect x="128" y="154" width="2" height="2" fill="#1d5236"/><rect x="128" y="156" width="2" height="2" fill="#296b47"/><rect x="130" y="154" width="2" height="2" fill="#296b47"/><rect x="130" y="156" width="2" height="2" fill="#1d5236"/><rect x="132" y="154" width="2" height="2" fill="#1d5236"/><rect x="132" y="156" width="2" height="2" fill="#296b47"/><rect x="134" y="154" width="2" height="2" fill="#296b47"/><rect x="134" y="156" width="2" height="2" fill="#1d5236"/><rect x="136" y="154" width="2" height="2" fill="#1d5236"/><rect x="136" y="156" width="2" height="2" fill="#296b47"/><rect x="138" y="154" width="2" height="2" fill="#296b47"/><rect x="138" y="156" width="2" height="2" fill="#1d5236"/><rect x="140" y="154" width="2" height="2" fill="#1d5236"/><rect x="140" y="156" width="2" height="2" fill="#296b47"/><rect x="142" y="154" width="2" height="2" fill="#296b47"/><rect x="142" y="156" width="2" height="2" fill="#1d5236"/><rect x="144" y="154" width="2" height="2" fill="#1d5236"/><rect x="144" y="156" width="2" height="2" fill="#296b47"/><rect x="146" y="154" width="2" height="2" fill="#296b47"/><rect x="146" y="156" width="2" height="2" fill="#1d5236"/><rect x="148" y="154" width="2" height="2" fill="#1d5236"/><rect x="148" y="156" width="2" height="2" fill="#296b47"/><rect x="150" y="154" width="2" height="2" fill="#296b47"/><rect x="150" y="156" width="2" height="2" fill="#1d5236"/><rect x="152" y="154" width="2" height="2" fill="#1d5236"/><rect x="152" y="156" width="2" height="2" fill="#296b47"/><rect x="154" y="154" width="2" height="2" fill="#296b47"/><rect x="154" y="156" width="2" height="2" fill="#1d5236"/><rect x="156" y="154" width="2" height="2" fill="#1d5236"/><rect x="156" y="156" width="2" height="2" fill="#296b47"/><rect x="158" y="154" width="2" height="2" fill="#296b47"/><rect x="158" y="156" width="2" height="2" fill="#1d5236"/><rect x="160" y="154" width="2" height="2" fill="#1d5236"/><rect x="160" y="156" width="2" height="2" fill="#296b47"/><rect x="162" y="154" width="2" height="2" fill="#296b47"/><rect x="162" y="156" width="2" height="2" fill="#1d5236"/><rect x="164" y="154" width="2" height="2" fill="#1d5236"/><rect x="164" y="156" width="2" height="2" fill="#296b47"/><rect x="166" y="154" width="2" height="2" fill="#296b47"/><rect x="166" y="156" width="2" height="2" fill="#1d5236"/><rect x="168" y="154" width="2" height="2" fill="#1d5236"/><rect x="168" y="156" width="2" height="2" fill="#296b47"/><rect x="170" y="154" width="2" height="2" fill="#296b47"/><rect x="170" y="156" width="2" height="2" fill="#1d5236"/><rect x="172" y="154" width="2" height="2" fill="#1d5236"/><rect x="172" y="156" width="2" height="2" fill="#296b47"/><rect x="174" y="154" width="2" height="2" fill="#296b47"/><rect x="174" y="156" width="2" height="2" fill="#1d5236"/><rect x="176" y="154" width="2" height="2" fill="#1d5236"/><rect x="176" y="156" width="2" height="2" fill="#296b47"/><rect x="178" y="154" width="2" height="2" fill="#296b47"/><rect x="178" y="156" width="2" height="2" fill="#1d5236"/><rect x="180" y="154" width="2" height="2" fill="#1d5236"/><rect x="180" y="156" width="2" height="2" fill="#296b47"/><rect x="182" y="154" width="2" height="2" fill="#296b47"/><rect x="182" y="156" width="2" height="2" fill="#1d5236"/><rect x="184" y="154" width="2" height="2" fill="#1d5236"/><rect x="184" y="156" width="2" height="2" fill="#296b47"/><rect x="186" y="154" width="2" height="2" fill="#296b47"/><rect x="186" y="156" width="2" height="2" fill="#1d5236"/><rect x="188" y="154" width="2" height="2" fill="#1d5236"/><rect x="188" y="156" width="2" height="2" fill="#296b47"/><rect x="190" y="154" width="2" height="2" fill="#296b47"/><rect x="190" y="156" width="2" height="2" fill="#1d5236"/><rect x="192" y="154" width="2" height="2" fill="#1d5236"/><rect x="192" y="156" width="2" height="2" fill="#296b47"/><rect x="194" y="154" width="2" height="2" fill="#296b47"/><rect x="194" y="156" width="2" height="2" fill="#1d5236"/><rect x="196" y="154" width="2" height="2" fill="#1d5236"/><rect x="196" y="156" width="2" height="2" fill="#296b47"/><rect x="198" y="154" width="2" height="2" fill="#296b47"/><rect x="198" y="156" width="2" height="2" fill="#1d5236"/><rect x="200" y="154" width="2" height="2" fill="#1d5236"/><rect x="200" y="156" width="2" height="2" fill="#296b47"/><rect x="202" y="154" width="2" height="2" fill="#296b47"/><rect x="202" y="156" width="2" height="2" fill="#1d5236"/><rect x="204" y="154" width="2" height="2" fill="#1d5236"/><rect x="204" y="156" width="2" height="2" fill="#296b47"/><rect x="206" y="154" width="2" height="2" fill="#296b47"/><rect x="206" y="156" width="2" height="2" fill="#1d5236"/><rect x="208" y="154" width="2" height="2" fill="#1d5236"/><rect x="208" y="156" width="2" height="2" fill="#296b47"/><rect x="210" y="154" width="2" height="2" fill="#296b47"/><rect x="210" y="156" width="2" height="2" fill="#1d5236"/><rect x="212" y="154" width="2" height="2" fill="#1d5236"/><rect x="212" y="156" width="2" height="2" fill="#296b47"/><rect x="214" y="154" width="2" height="2" fill="#296b47"/><rect x="214" y="156" width="2" height="2" fill="#1d5236"/><rect x="216" y="154" width="2" height="2" fill="#1d5236"/><rect x="216" y="156" width="2" height="2" fill="#296b47"/><rect x="218" y="154" width="2" height="2" fill="#296b47"/><rect x="218" y="156" width="2" height="2" fill="#1d5236"/><rect x="220" y="154" width="2" height="2" fill="#1d5236"/><rect x="220" y="156" width="2" height="2" fill="#296b47"/><rect x="222" y="154" width="2" height="2" fill="#296b47"/><rect x="222" y="156" width="2" height="2" fill="#1d5236"/><rect x="224" y="154" width="2" height="2" fill="#1d5236"/><rect x="224" y="156" width="2" height="2" fill="#296b47"/><rect x="226" y="154" width="2" height="2" fill="#296b47"/><rect x="226" y="156" width="2" height="2" fill="#1d5236"/><rect x="228" y="154" width="2" height="2" fill="#1d5236"/><rect x="228" y="156" width="2" height="2" fill="#296b47"/><rect x="230" y="154" width="2" height="2" fill="#296b47"/><rect x="230" y="156" width="2" height="2" fill="#1d5236"/><rect x="232" y="154" width="2" height="2" fill="#1d5236"/><rect x="232" y="156" width="2" height="2" fill="#296b47"/><rect x="234" y="154" width="2" height="2" fill="#296b47"/><rect x="234" y="156" width="2" height="2" fill="#1d5236"/><rect x="236" y="154" width="2" height="2" fill="#1d5236"/><rect x="236" y="156" width="2" height="2" fill="#296b47"/><rect x="238" y="154" width="2" height="2" fill="#296b47"/><rect x="238" y="156" width="2" height="2" fill="#1d5236"/><rect x="240" y="154" width="2" height="2" fill="#1d5236"/><rect x="240" y="156" width="2" height="2" fill="#296b47"/><rect x="242" y="154" width="2" height="2" fill="#296b47"/><rect x="242" y="156" width="2" height="2" fill="#1d5236"/><rect x="244" y="154" width="2" height="2" fill="#1d5236"/><rect x="244" y="156" width="2" height="2" fill="#296b47"/><rect x="246" y="154" width="2" height="2" fill="#296b47"/><rect x="246" y="156" width="2" height="2" fill="#1d5236"/><rect x="248" y="154" width="2" height="2" fill="#1d5236"/><rect x="248" y="156" width="2" height="2" fill="#296b47"/><rect x="250" y="154" width="2" height="2" fill="#296b47"/><rect x="250" y="156" width="2" height="2" fill="#1d5236"/><rect x="252" y="154" width="2" height="2" fill="#1d5236"/><rect x="252" y="156" width="2" height="2" fill="#296b47"/><rect x="254" y="154" width="2" height="2" fill="#296b47"/><rect x="254" y="156" width="2" height="2" fill="#1d5236"/><rect x="256" y="154" width="2" height="2" fill="#1d5236"/><rect x="256" y="156" width="2" height="2" fill="#296b47"/><rect x="258" y="154" width="2" height="2" fill="#296b47"/><rect x="258" y="156" width="2" height="2" fill="#1d5236"/><rect x="260" y="154" width="2" height="2" fill="#1d5236"/><rect x="260" y="156" width="2" height="2" fill="#296b47"/><rect x="262" y="154" width="2" height="2" fill="#296b47"/><rect x="262" y="156" width="2" height="2" fill="#1d5236"/><rect x="264" y="154" width="2" height="2" fill="#1d5236"/><rect x="264" y="156" width="2" height="2" fill="#296b47"/><rect x="266" y="154" width="2" height="2" fill="#296b47"/><rect x="266" y="156" width="2" height="2" fill="#1d5236"/><rect x="268" y="154" width="2" height="2" fill="#1d5236"/><rect x="268" y="156" width="2" height="2" fill="#296b47"/><rect x="270" y="154" width="2" height="2" fill="#296b47"/><rect x="270" y="156" width="2" height="2" fill="#1d5236"/><rect x="272" y="154" width="2" height="2" fill="#1d5236"/><rect x="272" y="156" width="2" height="2" fill="#296b47"/><rect x="274" y="154" width="2" height="2" fill="#296b47"/><rect x="274" y="156" width="2" height="2" fill="#1d5236"/><rect x="276" y="154" width="2" height="2" fill="#1d5236"/><rect x="276" y="156" width="2" height="2" fill="#296b47"/><rect x="278" y="154" width="2" height="2" fill="#296b47"/><rect x="278" y="156" width="2" height="2" fill="#1d5236"/><rect x="280" y="154" width="2" height="2" fill="#1d5236"/><rect x="280" y="156" width="2" height="2" fill="#296b47"/><rect x="282" y="154" width="2" height="2" fill="#296b47"/><rect x="282" y="156" width="2" height="2" fill="#1d5236"/><rect x="284" y="154" width="2" height="2" fill="#1d5236"/><rect x="284" y="156" width="2" height="2" fill="#296b47"/><rect x="286" y="154" width="2" height="2" fill="#296b47"/><rect x="286" y="156" width="2" height="2" fill="#1d5236"/><rect x="288" y="154" width="2" height="2" fill="#1d5236"/><rect x="288" y="156" width="2" height="2" fill="#296b47"/><rect x="290" y="154" width="2" height="2" fill="#296b47"/><rect x="290" y="156" width="2" height="2" fill="#1d5236"/><rect x="292" y="154" width="2" height="2" fill="#1d5236"/><rect x="292" y="156" width="2" height="2" fill="#296b47"/><rect x="294" y="154" width="2" height="2" fill="#296b47"/><rect x="294" y="156" width="2" height="2" fill="#1d5236"/><rect x="296" y="154" width="2" height="2" fill="#1d5236"/><rect x="296" y="156" width="2" height="2" fill="#296b47"/><rect x="298" y="154" width="2" height="2" fill="#296b47"/><rect x="298" y="156" width="2" height="2" fill="#1d5236"/><rect x="300" y="154" width="2" height="2" fill="#1d5236"/><rect x="300" y="156" width="2" height="2" fill="#296b47"/><rect x="302" y="154" width="2" height="2" fill="#296b47"/><rect x="302" y="156" width="2" height="2" fill="#1d5236"/><rect x="304" y="154" width="2" height="2" fill="#1d5236"/><rect x="304" y="156" width="2" height="2" fill="#296b47"/><rect x="306" y="154" width="2" height="2" fill="#296b47"/><rect x="306" y="156" width="2" height="2" fill="#1d5236"/><rect x="308" y="154" width="2" height="2" fill="#1d5236"/><rect x="308" y="156" width="2" height="2" fill="#296b47"/><rect x="310" y="154" width="2" height="2" fill="#296b47"/><rect x="310" y="156" width="2" height="2" fill="#1d5236"/><rect x="312" y="154" width="2" height="2" fill="#1d5236"/><rect x="312" y="156" width="2" height="2" fill="#296b47"/><rect x="314" y="154" width="2" height="2" fill="#296b47"/><rect x="314" y="156" width="2" height="2" fill="#1d5236"/><rect x="316" y="154" width="2" height="2" fill="#1d5236"/><rect x="316" y="156" width="2" height="2" fill="#296b47"/><rect x="318" y="154" width="2" height="2" fill="#296b47"/><rect x="318" y="156" width="2" height="2" fill="#1d5236"/><rect x="320" y="154" width="2" height="2" fill="#1d5236"/><rect x="320" y="156" width="2" height="2" fill="#296b47"/><rect x="322" y="154" width="2" height="2" fill="#296b47"/><rect x="322" y="156" width="2" height="2" fill="#1d5236"/><rect x="324" y="154" width="2" height="2" fill="#1d5236"/><rect x="324" y="156" width="2" height="2" fill="#296b47"/><rect x="326" y="154" width="2" height="2" fill="#296b47"/><rect x="326" y="156" width="2" height="2" fill="#1d5236"/><rect x="328" y="154" width="2" height="2" fill="#1d5236"/><rect x="328" y="156" width="2" height="2" fill="#296b47"/><rect x="330" y="154" width="2" height="2" fill="#296b47"/><rect x="330" y="156" width="2" height="2" fill="#1d5236"/><rect x="332" y="154" width="2" height="2" fill="#1d5236"/><rect x="332" y="156" width="2" height="2" fill="#296b47"/><rect x="334" y="154" width="2" height="2" fill="#296b47"/><rect x="334" y="156" width="2" height="2" fill="#1d5236"/><rect x="336" y="154" width="2" height="2" fill="#1d5236"/><rect x="336" y="156" width="2" height="2" fill="#296b47"/><rect x="338" y="154" width="2" height="2" fill="#296b47"/><rect x="338" y="156" width="2" height="2" fill="#1d5236"/><rect x="340" y="154" width="2" height="2" fill="#1d5236"/><rect x="340" y="156" width="2" height="2" fill="#296b47"/><rect x="342" y="154" width="2" height="2" fill="#296b47"/><rect x="342" y="156" width="2" height="2" fill="#1d5236"/><rect x="344" y="154" width="2" height="2" fill="#1d5236"/><rect x="344" y="156" width="2" height="2" fill="#296b47"/><rect x="346" y="154" width="2" height="2" fill="#296b47"/><rect x="346" y="156" width="2" height="2" fill="#1d5236"/><rect x="348" y="154" width="2" height="2" fill="#1d5236"/><rect x="348" y="156" width="2" height="2" fill="#296b47"/><rect x="350" y="154" width="2" height="2" fill="#296b47"/><rect x="350" y="156" width="2" height="2" fill="#1d5236"/><rect x="352" y="154" width="2" height="2" fill="#1d5236"/><rect x="352" y="156" width="2" height="2" fill="#296b47"/><rect x="354" y="154" width="2" height="2" fill="#296b47"/><rect x="354" y="156" width="2" height="2" fill="#1d5236"/><rect x="356" y="154" width="2" height="2" fill="#1d5236"/><rect x="356" y="156" width="2" height="2" fill="#296b47"/><rect x="358" y="154" width="2" height="2" fill="#296b47"/><rect x="358" y="156" width="2" height="2" fill="#1d5236"/>
  <rect x="48" y="158" width="310" height="10" fill="#1d5236"/>
  <rect x="50" y="166" width="308" height="6" fill="#143a26"/>
  <!-- характерная линия (свет) -->
  <rect x="64" y="118" width="294" height="2" fill="#3f9868"/>
  <!-- шов двери + ручка -->
  <rect x="214" y="92" width="2" height="72" fill="#081711"/>
  <rect x="220" y="100" width="16" height="4" fill="#d6dae2"/>
  <rect x="220" y="103" width="16" height="1" fill="#787f8c"/>
  <!-- повторитель поворота -->
  <rect x="194" y="112" width="6" height="3" fill="#e8a020"/>
  <!-- лючок бензобака -->
  <circle cx="348" cy="110" r="4" fill="#a9aeb9"/>

  <!-- ═══ КАПОТ ═══ -->
  <polygon points="18,96 58,86 166,76 170,84 60,96 20,106" fill="#3f9868"/>
  <polygon points="24,94 60,86 160,77 161,80 62,90 26,100" fill="#63ba86"/>
  <!-- воздухозаборник -->
  <rect x="118" y="80" width="22" height="3" fill="#1d5236"/>

  <!-- ═══ ПЕРЕДНЯЯ ПАНЕЛЬ (акульий нос) ═══ -->
  <polygon points="14,96 24,100 24,164 18,158 6,112" fill="#266846"/>
  <polygon points="24,100 60,92 60,166 24,164" fill="#266846"/>
  <rect x="24" y="152" width="36" height="12" fill="#1b4c33"/>
  <!-- фары: внешняя пара (стек) -->
  <circle cx="31" cy="110" r="6" fill="#9a9478"/><circle cx="31" cy="110" r="4.5" fill="#f6f1cd"/><rect x="28" y="107" width="3" height="2" fill="#ffffff"/>
  <circle cx="31" cy="130" r="6" fill="#9a9478"/><circle cx="31" cy="130" r="4.5" fill="#f6f1cd"/><rect x="28" y="127" width="3" height="2" fill="#ffffff"/>
  <!-- ноздри решётки -->
  <rect x="40" y="106" width="5" height="30" fill="#a9aeb9"/>
  <rect x="41" y="107" width="3" height="28" fill="#081711"/>
  <rect x="47" y="105" width="5" height="30" fill="#a9aeb9"/>
  <rect x="48" y="106" width="3" height="28" fill="#081711"/>
  <!-- фары: внутренняя пара (стек, ракурс) -->
  <circle cx="58" cy="108" r="5" fill="#9a9478"/><circle cx="58" cy="108" r="3.5" fill="#f6f1cd"/>
  <circle cx="58" cy="126" r="5" fill="#9a9478"/><circle cx="58" cy="126" r="3.5" fill="#f6f1cd"/>
  <!-- поворотник -->
  <rect x="52" y="142" width="7" height="4" fill="#e8a020"/>

  <!-- ═══ БАМПЕРЫ (хром) ═══ -->
  <polygon points="8,146 60,138 60,150 62,158 54,163 12,158 4,152" fill="#d6dae2"/>
  <rect x="10" y="147" width="46" height="3" fill="#f2f4f8"/>
  <polygon points="62,158 54,163 12,158 9,154 58,155" fill="#787f8c"/>
  <rect x="20" y="148" width="16" height="9" fill="#cfd3da"/>
  <polygon points="358,130 386,134 390,152 384,162 358,158" fill="#d6dae2"/>
  <rect x="362" y="133" width="22" height="3" fill="#f2f4f8"/>
  <polygon points="390,152 384,162 364,159 364,155" fill="#787f8c"/>
  <rect x="366" y="138" width="14" height="8" fill="#cfd3da"/>
  <!-- фонарь -->
  <rect x="364" y="100" width="9" height="20" fill="#c93a2c"/>
  <rect x="364" y="100" width="9" height="7" fill="#e8664f"/>
  <!-- выхлоп -->
  <rect x="370" y="163" width="13" height="6" fill="#787f8c"/>
  <rect x="380" y="163" width="3" height="6" fill="#081711"/>

  <!-- ═══ КОЛЁСА ═══ -->
  <!-- переднее -->
  <circle cx="101" cy="181" r="33" fill="#17191d"/>
  <circle cx="101" cy="181" r="27" fill="#25272d"/>
  <circle cx="101" cy="181" r="22" fill="#565d69"/>
  <circle cx="101" cy="181" r="19" fill="#8f96a2"/>
  <line x1="101.0" y1="177.0" x2="101.0" y2="165.0" stroke="#c3c8d2" stroke-width="3"/><line x1="104.8" y1="179.8" x2="116.2" y2="176.1" stroke="#c3c8d2" stroke-width="3"/><line x1="103.4" y1="184.2" x2="110.4" y2="193.9" stroke="#c3c8d2" stroke-width="3"/><line x1="98.6" y1="184.2" x2="91.6" y2="193.9" stroke="#c3c8d2" stroke-width="3"/><line x1="97.2" y1="179.8" x2="85.8" y2="176.1" stroke="#c3c8d2" stroke-width="3"/>
  <circle cx="101" cy="181" r="4" fill="#d6dae2"/>
  <!-- заднее -->
  <circle cx="319" cy="179" r="31" fill="#17191d"/>
  <circle cx="319" cy="179" r="25" fill="#25272d"/>
  <circle cx="319" cy="179" r="20" fill="#565d69"/>
  <circle cx="319" cy="179" r="17" fill="#8f96a2"/>
  <line x1="319.0" y1="175.0" x2="319.0" y2="164.0" stroke="#c3c8d2" stroke-width="3"/><line x1="322.8" y1="177.8" x2="333.3" y2="174.4" stroke="#c3c8d2" stroke-width="3"/><line x1="321.4" y1="182.2" x2="327.8" y2="191.1" stroke="#c3c8d2" stroke-width="3"/><line x1="316.6" y1="182.2" x2="310.2" y2="191.1" stroke="#c3c8d2" stroke-width="3"/><line x1="315.2" y1="177.8" x2="304.7" y2="174.4" stroke="#c3c8d2" stroke-width="3"/>
  <circle cx="319" cy="179" r="4" fill="#d6dae2"/>
</svg>